<svg width="53" height="37" viewBox="0 0 53 37" fill="none" xmlns="http://www.w3.org/2000/svg">
<path d="M18.0186 0.453125H22.7305V25.624C22.7305 29.0257 21.7051 31.6868 19.6543 33.6074C17.6198 35.528 14.9017 36.4883 11.5 36.4883C7.9681 36.4883 5.21745 35.585 3.24805 33.7783C1.27865 31.9717 0.293945 29.4408 0.293945 26.1855H4.98145C4.98145 28.2201 5.53483 29.807 6.6416 30.9463C7.76465 32.0856 9.38411 32.6553 11.5 32.6553C13.4368 32.6553 14.9993 32.0449 16.1875 30.8242C17.3919 29.6035 18.0023 27.8945 18.0186 25.6973V0.453125ZM31.6172 18.1777L33.4238 0.453125H51.6367V4.62793H37.2568L36.1826 14.3203C37.9242 13.2949 39.9017 12.7822 42.1152 12.7822C45.3542 12.7822 47.9258 13.8564 49.8301 16.0049C51.7344 18.137 52.6865 21.026 52.6865 24.6719C52.6865 28.334 51.6937 31.223 49.708 33.3389C47.7386 35.4385 44.9798 36.4883 41.4316 36.4883C38.2904 36.4883 35.7269 35.6175 33.7412 33.876C31.7555 32.1344 30.6243 29.7256 30.3477 26.6494H34.6201C34.8968 28.6839 35.6211 30.222 36.793 31.2637C37.9648 32.2891 39.5111 32.8018 41.4316 32.8018C43.5312 32.8018 45.1751 32.0856 46.3633 30.6533C47.5677 29.221 48.1699 27.2435 48.1699 24.7207C48.1699 22.3444 47.5189 20.4401 46.2168 19.0078C44.931 17.5592 43.2139 16.835 41.0654 16.835C39.096 16.835 37.5498 17.2663 36.4268 18.1289L35.2305 19.1055L31.6172 18.1777Z" fill="white"/>
</svg>
