<svg xmlns="http://www.w3.org/2000/svg" version="1.1" xmlns:i="http://ns.adobe.com/AdobeIllustrator/10.0/" viewBox="247.28 599.77 924.53 217.97" style="height: 2.5rem;">
            <g>
                <g id="Layer_1" fill="#fff">
                    <path d="M285.7,635.9c22.7,0,34,11.1,34,33.5v56.3c0,2.1-1,3.1-3.1,3.1h-5.3c-2.2,0-3.1-.9-3.1-3.1v-55.9c0-15.6-8-23.3-23.9-23.3s-15.7,1.2-22.7,3.8c-1.7.9-2.6,2.2-2.6,4.3v71.1c0,2.1-1,3.1-3.1,3.1h-5.5c-2.1,0-3.1-1-3.1-3.1v-74.6c0-5.3,1.2-7.2,6.5-9.4,9.4-3.9,20-5.8,31.8-5.8"></path>
                    <path d="M453.7,667.3c0-13-9.9-21-26.2-21s-26,8-26,21v30.1c0,13,10.3,20.9,26,20.9s26.2-7.9,26.2-20.9v-30.1ZM390.1,667.3c0-19.7,14.2-31.5,37.4-31.5s37.8,11.8,37.8,31.5v30.1c0,19.7-14.4,31.3-37.8,31.3s-37.4-12-37.4-31.3v-30.1Z"></path>
                    <path d="M596.8,669.7c0-15.6-7.9-23.3-23.8-23.3s-16.8,1.9-25.5,5.5v58.5c0,2.7.3,3.2,3.1,4.4,5.6,2.2,12.3,3.4,20,3.4,17.4,0,26.2-8.2,26.2-24.8v-23.8ZM544.5,599.8c2.1,0,3.1,1,3.1,3.1v38.3c10.6-3.6,19.7-5.3,27-5.3,22.4,0,33.7,11.1,33.7,33.5v24.3c0,23.4-12.3,35.1-36.8,35.1s-21.4-1.7-28.9-5.1c-5.5-2.6-6.7-3.9-6.7-9.4v-111.3c0-2.1,1-3.1,3.1-3.1h5.5Z"></path>
                    <path d="M740.4,670.6c0-15.6-9.2-24.8-26.5-24.8s-26.3,9.2-26.3,24.8v6h52.8v-6ZM676.1,671.9c0-22.7,13.2-36.1,37.8-36.1s38,14,38,35.4v9.4c0,3.2-1.7,4.8-5.1,4.8h-59.2v9.9c0,14.9,9.1,23.4,25.6,23.4s21.5-4.8,26.8-14.2c1.4-1.9,3.1-2.2,5-1.2l3.6,1.9c2.2,1.2,2.6,2.7,1.2,5-6.8,12.3-19,18.5-36.6,18.5s-37.1-13.2-37.1-34.5v-22.2Z"></path>
                    <path d="M876.3,686.8c-10.3-1-18.1-1.5-23.6-1.5-17.9,0-24.6,5-24.6,16.8s5.3,17.1,24.3,17.1,15.6-.9,20.7-2.7c2.7-1.2,3.2-1.7,3.2-5v-24.6ZM853.5,635.9c25.3,0,34.2,13.2,34.2,33.8v44.8c0,6-1.4,7.7-6.2,9.7-6.8,2.9-16.2,4.4-28.4,4.4s-23.8-2.1-29.1-6.5c-5.3-4.3-7.9-10.9-7.9-20,0-19.3,10.4-26.5,37.6-26.5s12.1.5,22.4,1.7v-7.9c0-14.9-5.8-23.4-23.1-23.4s-19.3,4.1-23.9,12.5c-1.2,1.7-2.7,2.2-4.3,1.4l-4.1-1.7c-2.2-.8-2.7-2.2-1.7-4.4,6.3-12,17.8-17.9,34.4-17.9"></path>
                    <path d="M957.1,669.5c0-21.2,12.7-33.7,37.3-33.7s31.1,7.7,35.7,23.1c.7,2.2,0,3.6-2.1,4.4l-4.4,1.5c-2.1.7-3.4,0-4.3-2.1-3.6-11.6-10.9-16.8-25.3-16.8s-25.5,8.5-25.5,23.1v26.2c0,14.5,9.1,23.2,25.5,23.2s21.9-5.8,25.5-17.6c.9-1.9,2.2-2.6,4.4-2.1l4.4,1.4c2.2.9,2.9,2.2,2.1,4.4-5.3,15.9-17.4,23.9-36.8,23.9s-36.6-12.5-36.6-33.7v-25.5Z"></path>
                    <path d="M1107.9,599.8c2.2,0,3.1.9,3.1,3.1v37.8c7-3.2,16.1-4.8,26.8-4.8,22.7,0,34,11.1,34,33.5v56.3c0,2.1-1,3.1-3.1,3.1h-5.5c-2.1,0-3.1-1-3.1-3.1v-55.9c0-15.6-8-23.3-23.9-23.3s-18.6,1.7-25.3,5v74.2c0,2.2-.8,3.1-3.1,3.1h-5.3c-2.6,0-3.1-.9-3.1-3.1v-122.8c0-2.2.5-3.1,3.1-3.1h5.3Z"></path>
                    <path d="M1140.8,778.1c-2.4,1-3,1.9-3,4.3v32.8c0,.9.5,1.4,1.4,1.4h2.5c.9,0,1.4-.5,1.4-1.4v-31.3c0-.9.4-1.6,1.2-1.9,3.2-1.2,6.7-1.7,10.3-1.7,7.2,0,10.9,3.5,10.9,10.6v24.4c0,1,.4,1.4,1.4,1.4h2.4c.9,0,1.4-.5,1.4-1.4v-24.5c0-10.2-5.1-15.2-15.5-15.2s-10.2.9-14.5,2.6M1102,794h-24v-2.7c0-7.1,4.2-11.3,12-11.3s12.1,4.2,12.1,11.3v2.7ZM1072.7,802c0,9.7,5.6,15.7,16.9,15.7s13.5-2.8,16.6-8.4c.6-1,.5-1.7-.5-2.3l-1.6-.9c-.9-.5-1.6-.3-2.3.5-2.4,4.3-6.5,6.5-12.2,6.5s-11.7-3.9-11.7-10.7v-4.5h26.9c1.6,0,2.3-.7,2.3-2.2v-4.3c0-9.7-6-16.1-17.3-16.1s-17.2,6.1-17.2,16.4v10.1ZM1020.4,811.9l23.1-30.3c.4-.5.5-1,.5-1.6v-1.9c0-1-.4-1.4-1.4-1.4h-27.2c-1,0-1.3.4-1.3,1.4v1.9c0,.9.5,1.4,1.3,1.4h21.9l-23.1,30.3c-.3.4-.5.9-.5,1.6v1.9c0,1,.2,1.4,1.4,1.4h27.9c.9,0,1.4-.5,1.4-1.4v-1.9c0-.9-.5-1.4-1.4-1.4h-22.6ZM979.8,776.6c-.9,0-1.4.5-1.4,1.4v37.2c0,.9.5,1.4,1.4,1.4h2.5c.9,0,1.4-.5,1.4-1.4v-37.2c0-.9-.5-1.4-1.4-1.4h-2.5ZM980.8,762.3c-2.2,0-2.9.7-2.9,2.9v.5c0,2.2.7,2.9,2.9,2.9h.5c2.2,0,2.9-.7,2.9-2.9v-.5c0-2.2-.7-2.9-2.9-2.9h-.5ZM942.3,794h-24v-2.7c0-7.1,4.2-11.3,12-11.3s12.1,4.2,12.1,11.3v2.7ZM913.1,802c0,9.7,5.6,15.7,16.9,15.7s13.5-2.8,16.6-8.4c.6-1,.5-1.7-.5-2.3l-1.6-.9c-.9-.5-1.6-.3-2.3.5-2.4,4.3-6.5,6.5-12.2,6.5s-11.7-3.9-11.7-10.7v-4.5h26.9c1.6,0,2.3-.7,2.3-2.2v-4.3c0-9.7-6-16.1-17.3-16.1s-17.2,6.1-17.2,16.4v10.1ZM884.1,775.4c-5.4,0-10.1.9-14.1,2.4-2.3,1-3,1.9-3,4.4v33c0,.9.5,1.4,1.4,1.4h2.5c.9,0,1.4-.5,1.4-1.4v-31.3c0-1,.5-1.6,1.3-2,3-1.1,6.4-1.6,10.3-1.6h2.6c.9,0,1.4-.5,1.4-1.4v-2c0-.9-.5-1.4-1.4-1.4h-2.4ZM790.3,794h-24v-2.7c0-7.1,4.2-11.3,12-11.3s12.1,4.2,12.1,11.3v2.7ZM761.1,802c0,9.7,5.6,15.7,16.9,15.7s13.5-2.8,16.6-8.4c.6-1,.5-1.7-.5-2.3l-1.6-.9c-.9-.5-1.6-.3-2.3.5-2.4,4.3-6.5,6.5-12.2,6.5s-11.7-3.9-11.7-10.7v-4.5h26.9c1.6,0,2.3-.7,2.3-2.2v-4.3c0-9.7-6-16.1-17.3-16.1s-17.2,6.1-17.2,16.4v10.1ZM731.7,776.6c-1.6,0-2.1.2-2.5,1.4l-10.6,25.8c-.4,1-.8,2.3-1.2,3.9-.5,1.6-.8,2.6-.9,2.8h-.2c0-.2-.4-1.2-.9-2.8-.5-1.6-.9-3-1.3-4l-10.7-25.7c-.4-1.2-.8-1.4-2.4-1.4h-1.8c-1.5,0-1.7.3-1.2,1.6l15.6,37.3c.4.9,1,1.3,2,1.3h1.5c.9,0,1.6-.5,1.9-1.3l15.6-37.3c.5-1.2.2-1.6-1.1-1.6h-1.9ZM666.7,794h-24v-2.7c0-7.1,4.2-11.3,12-11.3s12.1,4.2,12.1,11.3v2.7ZM637.4,802c0,9.7,5.6,15.7,16.9,15.7s13.5-2.8,16.6-8.4c.6-1,.5-1.7-.5-2.3l-1.6-.9c-.9-.5-1.6-.3-2.3.5-2.4,4.3-6.5,6.5-12.2,6.5s-11.7-3.9-11.7-10.7v-4.5h26.9c1.6,0,2.3-.7,2.3-2.2v-4.3c0-9.7-6-16.1-17.3-16.1s-17.2,6.1-17.2,16.4v10.1ZM602.2,776.6c-.9,0-1.4.5-1.4,1.4v37.2c0,.9.5,1.4,1.4,1.4h2.5c.9,0,1.4-.5,1.4-1.4v-37.2c0-.9-.5-1.4-1.4-1.4h-2.5ZM603.2,762.3c-2.2,0-2.9.7-2.9,2.9v.5c0,2.2.7,2.9,2.9,2.9h.5c2.2,0,2.9-.7,2.9-2.9v-.5c0-2.2-.7-2.9-2.9-2.9h-.5ZM538.7,787.1c0,3.8,1.4,6.6,3.2,8.2.9.8,2.1,1.4,3.7,1.9,3.1,1,4.8,1.2,8.8,1.6,7.9.9,11.3,2.1,11.3,7.2s-3.7,7.1-11,7.1-10.2-2.3-11.9-6.8c-.4-.9-1-1.1-1.9-.9l-2,.7c-1,.3-1.2.9-.9,1.9,2.5,6.5,8.1,9.7,16.8,9.7s15.9-4.4,15.9-11.9-1.5-7.2-4.5-8.9c-3-1.6-5.9-2.3-10.7-2.6-3.4-.3-4.7-.5-7-1.1-3.3-.9-4.4-2.5-4.7-6.2,0-4.5,3.4-6.8,10.2-6.8s9.4,1.9,11.2,5.9c.5.9,1.1,1.1,1.9.7l1.9-.9c1-.4,1.2-1.1.7-2-2.5-5.7-7.8-8.5-15.9-8.5s-15.3,4.4-15.3,11.7M503.1,776.6c-.9,0-1.4.5-1.4,1.4v31c0,1-.5,1.8-1.4,2.2-2.9,1.2-6.2,1.7-10.1,1.7-7.2,0-10.9-3.6-10.9-10.7v-24.3c0-1-.2-1.4-1.4-1.4h-2.4c-1,0-1.4.4-1.4,1.4v24.5c0,10.1,5.1,15.2,15.4,15.2s10.4-.9,14.5-2.6c2.4-1,3-1.9,3-4.3v-32.8c0-.9-.5-1.4-1.4-1.4h-2.5ZM441.2,760.4c0-1-.2-1.4-1.4-1.4h-2.4c-1,0-1.4.4-1.4,1.4v54.8c0,1,.4,1.4,1.4,1.4h2.4c1.2,0,1.4-.4,1.4-1.4v-54.8ZM371.7,802.4c0,9.6,5.8,15.3,16.6,15.3s14.3-3.7,16.7-10.9c.4-1,0-1.6-.9-2l-2-.6c-1-.2-1.6,0-2,.9-1.6,5.4-5.5,8-11.6,8s-11.6-4-11.6-10.6v-11.9c0-6.6,4-10.5,11.6-10.5s9.9,2.3,11.5,7.6c.4.9,1,1.2,1.9.9l2-.7c.9-.4,1.2-1,.9-2-2.1-7-7.6-10.5-16.3-10.5s-17,5.7-17,15.3v11.6ZM342,776.6c-1.5,0-1.7.2-2.4,1.2l-10.9,14.5-10.9-14.5c-.5-.8-1.4-1.2-2.6-1.2h-2.2c-1.4,0-1.8.5-1.1,1.6l13.5,17.9-14.2,19c-.8,1-.5,1.6,1,1.6h2.2c1.2,0,2-.4,2.5-1.2l11.6-15.6,11.7,15.6c.5.8,1.3,1.2,2.5,1.2h2.3c1.4,0,1.7-.5,1-1.6l-14.2-19,13.3-17.9c.7-1,.4-1.6-.9-1.6h-2.3ZM278.7,794h-24v-2.7c0-7.1,4.2-11.3,12-11.3s12.1,4.2,12.1,11.3v2.7ZM249.5,802c0,9.7,5.6,15.7,16.9,15.7s13.5-2.8,16.6-8.4c.6-1,.5-1.7-.5-2.3l-1.6-.9c-.9-.5-1.6-.3-2.3.5-2.4,4.3-6.5,6.5-12.2,6.5s-11.7-3.9-11.7-10.7v-4.5h26.9c1.6,0,2.3-.7,2.3-2.2v-4.3c0-9.7-6-16.1-17.3-16.1s-17.2,6.1-17.2,16.4v10.1Z"></path>
                </g>
            </g>
        </svg>
